<mxfile host="65bd71144e" modified="2020-11-16T09:25:44.009Z" agent="5.0 (Windows NT 10.0; Win64; x64) AppleWebKit/537.36 (KHTML, like Gecko) Code/1.51.1 Chrome/83.0.4103.122 Electron/9.3.3 Safari/537.36" etag="B1apOvfnX2_Rj7ExhPd0" version="13.6.5">
    <diagram id="T1Q-QU5SRTLN0sKFyYbS" name="Def. Connection">
        <mxGraphModel dx="1118" dy="830" grid="1" gridSize="10" guides="1" tooltips="1" connect="1" arrows="1" fold="1" page="1" pageScale="1" pageWidth="1169" pageHeight="827" math="0" shadow="0">
            <root>
                <mxCell id="WcO2Y7cE0bV6CoBs8EJK-0"/>
                <mxCell id="WcO2Y7cE0bV6CoBs8EJK-1" parent="WcO2Y7cE0bV6CoBs8EJK-0"/>
                <mxCell id="_Qkv4EI-hBEBQYT2oxI9-27" value="" style="rounded=1;whiteSpace=wrap;html=1;fontSize=12;align=left;arcSize=4;" parent="WcO2Y7cE0bV6CoBs8EJK-1" vertex="1">
                    <mxGeometry x="310" y="210" width="260" height="360" as="geometry"/>
                </mxCell>
                <mxCell id="_Qkv4EI-hBEBQYT2oxI9-28" value="" style="rounded=1;whiteSpace=wrap;html=1;fontSize=12;align=left;arcSize=4;" parent="WcO2Y7cE0bV6CoBs8EJK-1" vertex="1">
                    <mxGeometry x="590" y="210" width="260" height="360" as="geometry"/>
                </mxCell>
                <mxCell id="WcO2Y7cE0bV6CoBs8EJK-2" value="Service" style="ellipse;whiteSpace=wrap;html=1;aspect=fixed;rounded=1;fontSize=12;" parent="WcO2Y7cE0bV6CoBs8EJK-1" vertex="1">
                    <mxGeometry x="320" y="240" width="80" height="80" as="geometry"/>
                </mxCell>
                <mxCell id="0NlrbSUM94yCUHZFX5sZ-1" value="Other Service" style="ellipse;whiteSpace=wrap;html=1;aspect=fixed;rounded=1;fontSize=12;" parent="WcO2Y7cE0bV6CoBs8EJK-1" vertex="1">
                    <mxGeometry x="480" y="240" width="80" height="80" as="geometry"/>
                </mxCell>
                <mxCell id="0NlrbSUM94yCUHZFX5sZ-6" value="" style="endArrow=block;html=1;fillColor=#BD08FF;fontSize=12;endFill=1;startArrow=none;startFill=0;" parent="WcO2Y7cE0bV6CoBs8EJK-1" source="WcO2Y7cE0bV6CoBs8EJK-2" target="0NlrbSUM94yCUHZFX5sZ-1" edge="1">
                    <mxGeometry width="50" height="50" relative="1" as="geometry">
                        <mxPoint x="350" y="410" as="sourcePoint"/>
                        <mxPoint x="400" y="360" as="targetPoint"/>
                    </mxGeometry>
                </mxCell>
                <mxCell id="0NlrbSUM94yCUHZFX5sZ-8" value="Service" style="ellipse;whiteSpace=wrap;html=1;aspect=fixed;rounded=1;fontSize=12;" parent="WcO2Y7cE0bV6CoBs8EJK-1" vertex="1">
                    <mxGeometry x="600" y="240" width="80" height="80" as="geometry"/>
                </mxCell>
                <mxCell id="0NlrbSUM94yCUHZFX5sZ-9" value="Other Service" style="ellipse;whiteSpace=wrap;html=1;aspect=fixed;rounded=1;fontSize=12;" parent="WcO2Y7cE0bV6CoBs8EJK-1" vertex="1">
                    <mxGeometry x="760" y="240" width="80" height="80" as="geometry"/>
                </mxCell>
                <mxCell id="0NlrbSUM94yCUHZFX5sZ-10" value="" style="endArrow=classic;html=1;fillColor=#BD08FF;fontSize=12;endFill=1;startArrow=diamond;startFill=1;" parent="WcO2Y7cE0bV6CoBs8EJK-1" source="0NlrbSUM94yCUHZFX5sZ-8" edge="1">
                    <mxGeometry width="50" height="50" relative="1" as="geometry">
                        <mxPoint x="630" y="410" as="sourcePoint"/>
                        <mxPoint x="760" y="280" as="targetPoint"/>
                    </mxGeometry>
                </mxCell>
                <mxCell id="0NlrbSUM94yCUHZFX5sZ-12" value="Service" style="ellipse;whiteSpace=wrap;html=1;aspect=fixed;rounded=1;fontSize=12;" parent="WcO2Y7cE0bV6CoBs8EJK-1" vertex="1">
                    <mxGeometry x="600" y="360" width="80" height="80" as="geometry"/>
                </mxCell>
                <mxCell id="0NlrbSUM94yCUHZFX5sZ-13" value="Other Service" style="ellipse;whiteSpace=wrap;html=1;aspect=fixed;rounded=1;fontSize=12;" parent="WcO2Y7cE0bV6CoBs8EJK-1" vertex="1">
                    <mxGeometry x="760" y="360" width="80" height="80" as="geometry"/>
                </mxCell>
                <mxCell id="0NlrbSUM94yCUHZFX5sZ-14" value="" style="endArrow=diamond;html=1;fillColor=#BD08FF;fontSize=12;endFill=1;startArrow=diamond;startFill=1;" parent="WcO2Y7cE0bV6CoBs8EJK-1" source="0NlrbSUM94yCUHZFX5sZ-12" edge="1">
                    <mxGeometry width="50" height="50" relative="1" as="geometry">
                        <mxPoint x="630" y="530" as="sourcePoint"/>
                        <mxPoint x="760" y="400" as="targetPoint"/>
                    </mxGeometry>
                </mxCell>
                <mxCell id="_Qkv4EI-hBEBQYT2oxI9-0" value="Service" style="ellipse;whiteSpace=wrap;html=1;aspect=fixed;rounded=1;fontSize=12;" parent="WcO2Y7cE0bV6CoBs8EJK-1" vertex="1">
                    <mxGeometry x="320" y="360" width="80" height="80" as="geometry"/>
                </mxCell>
                <mxCell id="_Qkv4EI-hBEBQYT2oxI9-1" value="Other Service" style="ellipse;whiteSpace=wrap;html=1;aspect=fixed;rounded=1;fontSize=12;" parent="WcO2Y7cE0bV6CoBs8EJK-1" vertex="1">
                    <mxGeometry x="480" y="360" width="80" height="80" as="geometry"/>
                </mxCell>
                <mxCell id="_Qkv4EI-hBEBQYT2oxI9-2" value="" style="endArrow=block;html=1;fillColor=#BD08FF;fontSize=12;endFill=1;startArrow=block;startFill=1;" parent="WcO2Y7cE0bV6CoBs8EJK-1" source="_Qkv4EI-hBEBQYT2oxI9-0" target="_Qkv4EI-hBEBQYT2oxI9-1" edge="1">
                    <mxGeometry width="50" height="50" relative="1" as="geometry">
                        <mxPoint x="350" y="530" as="sourcePoint"/>
                        <mxPoint x="400" y="480" as="targetPoint"/>
                    </mxGeometry>
                </mxCell>
                <mxCell id="_Qkv4EI-hBEBQYT2oxI9-11" value="Service" style="ellipse;whiteSpace=wrap;html=1;aspect=fixed;rounded=1;fontSize=12;" parent="WcO2Y7cE0bV6CoBs8EJK-1" vertex="1">
                    <mxGeometry x="600" y="480" width="80" height="80" as="geometry"/>
                </mxCell>
                <mxCell id="_Qkv4EI-hBEBQYT2oxI9-12" value="Other Service" style="ellipse;whiteSpace=wrap;html=1;aspect=fixed;rounded=1;fontSize=12;" parent="WcO2Y7cE0bV6CoBs8EJK-1" vertex="1">
                    <mxGeometry x="760" y="480" width="80" height="80" as="geometry"/>
                </mxCell>
                <mxCell id="_Qkv4EI-hBEBQYT2oxI9-13" value="" style="endArrow=classic;html=1;fillColor=#BD08FF;fontSize=12;endFill=1;startArrow=diamond;startFill=1;" parent="WcO2Y7cE0bV6CoBs8EJK-1" edge="1">
                    <mxGeometry width="50" height="50" relative="1" as="geometry">
                        <mxPoint x="680" y="530" as="sourcePoint"/>
                        <mxPoint x="760" y="530" as="targetPoint"/>
                    </mxGeometry>
                </mxCell>
                <mxCell id="_Qkv4EI-hBEBQYT2oxI9-15" value="RR Duplex Equivalent :" style="text;html=1;align=left;verticalAlign=middle;resizable=0;points=[];autosize=1;fontSize=12;" parent="WcO2Y7cE0bV6CoBs8EJK-1" vertex="1">
                    <mxGeometry x="600" y="460" width="140" height="20" as="geometry"/>
                </mxCell>
                <mxCell id="_Qkv4EI-hBEBQYT2oxI9-16" value="RR Duplex :" style="text;html=1;align=left;verticalAlign=middle;resizable=0;points=[];autosize=1;fontSize=12;" parent="WcO2Y7cE0bV6CoBs8EJK-1" vertex="1">
                    <mxGeometry x="600" y="340" width="80" height="20" as="geometry"/>
                </mxCell>
                <mxCell id="_Qkv4EI-hBEBQYT2oxI9-17" value="RR Simplex :" style="text;html=1;align=left;verticalAlign=middle;resizable=0;points=[];autosize=1;fontSize=12;" parent="WcO2Y7cE0bV6CoBs8EJK-1" vertex="1">
                    <mxGeometry x="600" y="220" width="90" height="20" as="geometry"/>
                </mxCell>
                <mxCell id="_Qkv4EI-hBEBQYT2oxI9-18" value="" style="endArrow=classic;html=1;fillColor=#BD08FF;fontSize=12;endFill=1;startArrow=diamond;startFill=1;" parent="WcO2Y7cE0bV6CoBs8EJK-1" edge="1">
                    <mxGeometry width="50" height="50" relative="1" as="geometry">
                        <mxPoint x="760" y="510" as="sourcePoint"/>
                        <mxPoint x="680" y="510" as="targetPoint"/>
                    </mxGeometry>
                </mxCell>
                <mxCell id="_Qkv4EI-hBEBQYT2oxI9-20" value="R Duplex or W Duplex :" style="text;html=1;align=left;verticalAlign=middle;resizable=0;points=[];autosize=1;fontSize=12;" parent="WcO2Y7cE0bV6CoBs8EJK-1" vertex="1">
                    <mxGeometry x="320" y="340" width="140" height="20" as="geometry"/>
                </mxCell>
                <mxCell id="_Qkv4EI-hBEBQYT2oxI9-21" value="R Simplex or W Simplex:" style="text;html=1;align=left;verticalAlign=middle;resizable=0;points=[];autosize=1;fontSize=12;" parent="WcO2Y7cE0bV6CoBs8EJK-1" vertex="1">
                    <mxGeometry x="320" y="220" width="150" height="20" as="geometry"/>
                </mxCell>
                <mxCell id="_Qkv4EI-hBEBQYT2oxI9-22" value="R Duplex or W Duplex Equivalent:" style="text;html=1;align=left;verticalAlign=middle;resizable=0;points=[];autosize=1;fontSize=12;" parent="WcO2Y7cE0bV6CoBs8EJK-1" vertex="1">
                    <mxGeometry x="320" y="460" width="200" height="20" as="geometry"/>
                </mxCell>
                <mxCell id="_Qkv4EI-hBEBQYT2oxI9-23" value="Service" style="ellipse;whiteSpace=wrap;html=1;aspect=fixed;rounded=1;fontSize=12;" parent="WcO2Y7cE0bV6CoBs8EJK-1" vertex="1">
                    <mxGeometry x="320" y="480" width="80" height="80" as="geometry"/>
                </mxCell>
                <mxCell id="_Qkv4EI-hBEBQYT2oxI9-24" value="Other Service" style="ellipse;whiteSpace=wrap;html=1;aspect=fixed;rounded=1;fontSize=12;" parent="WcO2Y7cE0bV6CoBs8EJK-1" vertex="1">
                    <mxGeometry x="480" y="480" width="80" height="80" as="geometry"/>
                </mxCell>
                <mxCell id="_Qkv4EI-hBEBQYT2oxI9-25" value="" style="endArrow=block;html=1;fillColor=#BD08FF;fontSize=12;endFill=1;startArrow=none;startFill=0;" parent="WcO2Y7cE0bV6CoBs8EJK-1" edge="1">
                    <mxGeometry width="50" height="50" relative="1" as="geometry">
                        <mxPoint x="400" y="530" as="sourcePoint"/>
                        <mxPoint x="480" y="530" as="targetPoint"/>
                    </mxGeometry>
                </mxCell>
                <mxCell id="_Qkv4EI-hBEBQYT2oxI9-26" value="" style="endArrow=block;html=1;fillColor=#BD08FF;fontSize=12;endFill=1;startArrow=none;startFill=0;" parent="WcO2Y7cE0bV6CoBs8EJK-1" edge="1">
                    <mxGeometry width="50" height="50" relative="1" as="geometry">
                        <mxPoint x="480" y="510" as="sourcePoint"/>
                        <mxPoint x="400" y="510" as="targetPoint"/>
                    </mxGeometry>
                </mxCell>
                <mxCell id="_Qkv4EI-hBEBQYT2oxI9-29" value="Request Only or&lt;br&gt;Webhook Only" style="shape=card;whiteSpace=wrap;html=1;rounded=0;fontSize=12;align=left;rotation=90;horizontal=0;" parent="WcO2Y7cE0bV6CoBs8EJK-1" vertex="1">
                    <mxGeometry x="401.88" y="93.13" width="35" height="198.75" as="geometry"/>
                </mxCell>
                <mxCell id="_Qkv4EI-hBEBQYT2oxI9-31" value="Request And Response" style="shape=card;whiteSpace=wrap;html=1;rounded=0;fontSize=12;align=left;rotation=90;horizontal=0;" parent="WcO2Y7cE0bV6CoBs8EJK-1" vertex="1">
                    <mxGeometry x="679.5" y="95.51" width="35" height="194" as="geometry"/>
                </mxCell>
            </root>
        </mxGraphModel>
    </diagram>
</mxfile>